<?xml version="1.0" encoding="utf-8"?>
<!-- Generator: Adobe Illustrator 16.0.0, SVG Export Plug-In . SVG Version: 6.00 Build 0)  -->
<!DOCTYPE svg PUBLIC "-//W3C//DTD SVG 1.1//EN" "http://www.w3.org/Graphics/SVG/1.1/DTD/svg11.dtd">
<svg version="1.1" id="Layer_1" xmlns="http://www.w3.org/2000/svg" xmlns:xlink="http://www.w3.org/1999/xlink" x="0px" y="0px"
	 width="603.172px" height="120.385px" viewBox="4.682 339.157 603.172 120.385"
	 enable-background="new 4.682 339.157 603.172 120.385" xml:space="preserve">
<path fill="#FFFFFF" d="M97.81,377.25c0,0-9.569,0-9.905,0c0-0.335,0-13.592,0-13.592c0-13.517-10.985-24.501-24.501-24.501
	c-13.516,0-24.502,10.984-24.502,24.501c0,0,0,13.219,0,13.592c-0.334,0-9.719,0-9.719,0c-13.517,0-24.501,10.984-24.501,24.5
	c0,13.48,10.985,24.465,24.501,24.465c0,0,9.384,0,9.719,0c0,0.335,0,8.862,0,8.862c0,13.518,10.985,24.465,24.502,24.465
	c13.517,0,24.501-10.984,24.501-24.465c0,0,0-8.527,0-8.862c0.335,0,9.905,0,9.905,0c13.517,0,24.502-10.982,24.502-24.465
	C122.312,388.234,111.326,377.25,97.81,377.25z M48.248,363.658c0-8.378,6.814-15.155,15.155-15.155
	c8.49,0,15.379,6.665,15.379,14.932c0,8.341-6.889,15.155-15.379,15.155h-1.825v-7.41h1.825c4.319,0,7.932-3.537,7.932-7.745
	c0-4.133-3.575-7.521-7.932-7.521c-4.282,0-7.746,3.5-7.746,7.745v29.007l-7.41,6.033L48.248,363.658L48.248,363.658z
	 M78.596,435.077c0,8.379-6.815,15.192-15.193,15.192s-15.155-6.813-15.155-15.192v-9.458h7.41v9.458
	c0,4.283,3.463,7.745,7.746,7.745c4.283,0,7.745-3.5,7.745-7.745V410.8l7.41-5.958v30.235H78.596L78.596,435.077z M97.81,416.906
	H87.756v-7.447H97.81c4.283,0,7.745-3.464,7.745-7.745c0-4.28-3.462-7.746-7.745-7.746H83.101c-1.973,0-3.76,0.597-6.181,2.011
	c-0.447,0.26-2.197,1.526-2.83,2.048c-14.783,11.877-17.054,13.701-17.24,13.853c-0.596,0.446-2.085,1.601-3.091,2.159
	c-2.792,1.712-5.734,2.719-8.564,2.904H29.221c-8.379,0-15.193-6.814-15.193-15.155c0-8.378,6.814-15.193,15.193-15.193h10.053
	v7.411H29.221c-4.283,0-7.746,3.463-7.746,7.744c0,4.245,3.463,7.746,7.746,7.746c0,0,15.415,0,15.378,0
	c1.75-0.111,3.538-0.745,5.623-2.01l2.01-1.416c0,0,17.167-13.853,17.204-13.815c0.038-0.036,2.682-2.122,4.096-2.867
	c3.24-1.899,6.293-2.755,9.57-2.755H97.81c8.378,0,15.193,6.815,15.193,15.193C113.002,410.092,106.188,416.906,97.81,416.906z"/>
<path fill="#FFFFFF" d="M207.397,381.047c-9.458,0-16.607,7.968-16.607,18.544c0,10.611,7.149,18.617,16.607,18.617
	c9.42,0,16.532-8.006,16.532-18.617C223.93,389.016,216.817,381.047,207.397,381.047z M207.397,415.343
	c-6.963,0-9.644-4.432-9.644-15.788c0-11.358,2.717-15.789,9.644-15.789c6.888,0,9.57,4.431,9.57,15.789
	C216.967,410.911,214.285,415.343,207.397,415.343z"/>
<path fill="#FFFFFF" d="M548.334,414.15l-0.073-0.111c-0.11-0.148-0.261-0.262-0.446-0.262c-0.148,0-0.373,0.037-0.483,0.188
	c-0.707,0.782-1.341,1.189-1.899,1.189c-1.154,0-1.488-0.706-1.488-3.163v-19.178c0-7.819-3.984-11.766-11.879-11.766
	c-5.178,0-11.173,3.351-11.173,7.67c0,2.086,1.526,3.649,3.575,3.649c1.975,0,3.575-1.638,3.575-3.649
	c0-1.265-0.558-2.309-1.564-2.94c0,0,0,0-0.036,0l0.036-0.038c0.373-0.484,1.825-2.086,5.624-2.086c3.872,0,5.733,1.937,5.733,5.884
	v7.298l0,0c-9.532,0-19.772,3.873-19.772,12.362c0,5.027,3.576,8.677,8.454,8.677c3.798,0,7.633-1.751,11.433-5.251l0.036-0.037
	v0.037c0.521,2.866,3.055,5.025,5.92,5.025c2.012,0,3.873-1.301,4.767-2.047c0.188-0.187,0.261-0.482,0.113-0.744L548.334,414.15z
	 M537.797,409.832L537.797,409.832c-4.245,3.798-6.889,4.207-8.527,4.207c-2.568,0-4.766-2.757-4.766-6.032
	c0-5.696,4.579-8.714,13.256-8.714l0,0v10.539H537.797z"/>
<path fill="#FFFFFF" d="M340.07,414.709l-0.41-0.67c-0.111-0.148-0.259-0.262-0.446-0.262c-0.187,0-0.372,0.037-0.482,0.188
	c-0.707,0.782-1.342,1.189-1.9,1.189c-1.153,0-1.487-0.706-1.487-3.163v-19.178c0-7.819-3.984-11.766-11.88-11.766
	c-5.176,0-11.171,3.351-11.171,7.67c0,2.086,1.526,3.649,3.575,3.649c1.973,0,3.574-1.638,3.574-3.649
	c0-1.265-0.559-2.309-1.563-2.94h-0.038v-0.038c0.372-0.484,1.825-2.086,5.623-2.086c3.873,0,5.735,1.937,5.735,5.884v7.298h-0.039
	c-9.532,0-19.771,3.873-19.771,12.362c0,5.027,3.574,8.677,8.452,8.677c3.798,0,7.635-1.751,11.434-5.251l0.035-0.037v0.037
	c0.522,2.866,3.056,5.025,5.884,5.025c2.049,0,3.873-1.301,4.768-2.047c0.223-0.187,0.261-0.482,0.111-0.744v-0.148H340.07z
	 M329.198,409.832L329.198,409.832c-4.244,3.798-6.891,4.207-8.528,4.207c-2.569,0-4.767-2.757-4.767-6.032
	c0-5.696,4.582-8.714,13.256-8.714h0.039V409.832z"/>
<path fill="#FFFFFF" d="M471.59,384.548l-4.207-1.304c-5.734-1.602-9.011-5.325-9.011-10.165c0-6.144,4.354-10.427,10.611-10.427
	c8.938,0,12.102,6.256,12.102,12.102c0,0.931,0.409,1.378,1.304,1.378c0.856,0,1.305-0.448,1.305-1.378V360.53
	c0-0.67-0.188-1.304-1.378-1.304c-1.081,0-1.191,0.782-1.191,1.378c0,0.968-0.745,1.937-1.489,2.458h-0.037l-0.039-0.037
	c-1.339-1.452-4.541-3.91-10.834-3.91c-7.672,0-15.899,5.846-15.899,15.304c0,8.49,5.139,14.484,14.855,17.389l0,0
	c0.075,0.037,0.113,0.037,0.148,0.037c-0.035,0-0.073,0-0.148,0l3.391,0.968c3.872,1.081,10.352,3.91,10.352,11.06
	c0,6.852-6.032,10.539-11.655,10.539c-8.451,0-14.112-5.661-14.112-14.112c0-0.708-0.111-1.379-1.304-1.379
	c-0.854,0-1.303,0.483-1.303,1.379v16.271c0,0.447,0,1.38,1.377,1.38c0.82,0,1.193-0.484,1.193-1.453
	c0-1.306,0.707-2.606,1.675-3.09l0,0l0,0c1.564,1.452,5.884,4.803,12.063,4.803c10.502,0,18.098-7,18.098-16.683
	C487.528,393.261,482.165,387.563,471.59,384.548z M468.388,391.437C468.388,391.437,468.388,391.474,468.388,391.437
	L468.388,391.437L468.388,391.437z"/>
<path fill="#FFFFFF" d="M606.573,406.518c-0.782,0-1.155,0.818-1.379,1.377c-1.712,4.842-5.36,7.373-10.537,7.373
	c-6.702,0-10.092-5.063-10.092-15.043c0,0,0.074-2.197,0.074-3.275c0.261,0,22.38,0,22.38,0c0.297,0,0.559-0.225,0.559-0.523v-0.186
	c0.037-0.335,0.037-0.633,0.037-0.968c0-3.761-1.303-7.261-3.611-9.831c-2.606-2.867-6.181-4.394-10.39-4.394
	c-7.895,0-16.085,6.926-16.085,18.544c0,11.507,8.302,18.617,15.974,18.617c3.836,0,10.724-1.116,14.002-8.75
	c0.188-0.41,0.334-1.19,0.334-1.638C607.951,407.188,607.466,406.518,606.573,406.518z M585.087,393.894
	c1.117-6.628,4.396-10.128,9.384-10.128c7.56,0,7.857,10.016,7.857,10.128l0,0H585.087
	C585.087,393.931,585.087,393.894,585.087,393.894z"/>
<path fill="#FFFFFF" d="M302.349,413.965l-4.915,0.074l0,0v-52.28c0-1.006-0.669-1.565-1.267-1.565c-0.036,0-1.823,0.15-1.823,0.15l-3.128,0.223
	c0.038,0-4.729-0.075-4.729-0.075h-0.447c-0.149,0-0.298,0.075-0.41,0.186c-0.111,0.112-0.187,0.261-0.187,0.41v1.824
	c0,0.149,0.076,0.335,0.187,0.41c0.112,0.112,0.261,0.186,0.447,0.149l0.447-0.038c0.707-0.075,1.899-0.186,4.766-0.186l0,0v50.827
	l-4.803-0.073h-0.447c-0.149,0-0.298,0.073-0.41,0.188c-0.111,0.109-0.187,0.258-0.187,0.408v1.824c0,0.146,0.076,0.297,0.187,0.408
	c0.112,0.111,0.298,0.15,0.447,0.15h0.298c0.894-0.113,2.532-0.263,7.857-0.263h0.334c4.394,0,6.628,0.111,7.709,0.224
	c0.148,0,0.297-0.037,0.445-0.147c0.112-0.112,0.187-0.261,0.187-0.446v-1.789c0-0.146-0.038-0.297-0.149-0.408
	C302.647,414.039,302.498,413.965,302.349,413.965z"/>
<path fill="#FFFFFF" d="M249.549,381.047c-4.581,0-8.154,2.532-9.793,6.963l-0.038,0.149v-4.507c0-0.93-0.67-1.563-1.304-1.563
	c-0.037,0-1.898,0.148-1.898,0.148l-3.016,0.224c0.037,0-4.469-0.074-4.469-0.074c-0.149,0-0.298,0.074-0.41,0.148
	c-0.112,0.112-0.149,0.261-0.149,0.41v1.75c0,0.149,0.074,0.335,0.186,0.447c0.112,0.112,0.261,0.149,0.447,0.149
	c0.745-0.074,1.936-0.187,4.469-0.187h0.037v28.933l-4.543-0.074c-0.149,0-0.297,0.074-0.41,0.188
	c-0.112,0.111-0.148,0.261-0.148,0.408v1.75c0,0.149,0.074,0.297,0.186,0.409c0.111,0.111,0.261,0.148,0.447,0.148
	c0.968-0.073,3.24-0.222,7.373-0.222h0.335c4.133,0,6.256,0.11,7.297,0.222c0.149,0.038,0.336-0.037,0.448-0.148
	c0.111-0.112,0.186-0.26,0.186-0.409v-1.75c0-0.147-0.075-0.297-0.186-0.408c-0.112-0.112-0.26-0.188-0.41-0.188l-4.394,0.074l0,0
	v-15.081c0-6.516,1.824-11.58,5.027-13.926c1.489-1.08,3.128-1.415,4.58-0.968h0.036l-0.036,0.038
	c-0.596,0.595-0.932,1.228-0.932,2.532c0,2.197,1.602,3.873,3.724,3.873c2.234,0,3.873-1.862,3.873-4.469
	C255.991,383.095,253.31,381.047,249.549,381.047z"/>
<path fill="#FFFFFF" d="M171.464,360.567l-6.666,0.111l-3.313,0.075c-4.989,0-7.41-0.112-8.564-0.186c-0.149,0-0.298,0.037-0.446,0.148
	c-0.113,0.112-0.187,0.261-0.187,0.41v1.602c0,0.149,0.074,0.298,0.187,0.409c0.111,0.112,0.26,0.188,0.409,0.149l5.66-0.075l0,0
	c0,0,0,45.168,0,50.828l-4.356-0.074c-0.15,0-0.299,0.074-0.41,0.147c-0.112,0.113-0.148,0.26-0.148,0.41v1.75
	c0,0.149,0.075,0.297,0.186,0.408c0.112,0.113,0.261,0.149,0.447,0.149c0.93-0.073,3.127-0.226,7.261-0.226h1.042
	c4.468,0,6.553,0.113,7.559,0.226c0.149,0.036,0.335-0.036,0.446-0.149c0.112-0.111,0.186-0.259,0.186-0.408v-1.787
	c0-0.148-0.037-0.297-0.148-0.41c-0.112-0.11-0.262-0.147-0.41-0.147h-0.149c0,0-3.165,0.037-4.506,0.074l0,0c0,0,0-17.313,0-20.704
	h5.995c12.213,0,19.512-6.144,19.512-16.458C190.976,366.674,183.678,360.567,171.464,360.567z M171.464,390.245h-5.958v-26.513
	h5.995c8.862,0,11.841,3.313,11.841,13.145C183.305,386.856,180.327,390.245,171.464,390.245z"/>
<path fill="#FFFFFF" d="M280.046,382.351c0,0-6.591,0.075-8.602,0.075v-0.038v-9.086c0-1.34-0.075-2.495-1.117-2.495
	c-1.117,0-1.379,0.857-2.347,5.549c0,0,0,0,0,0.037c-0.856,4.655-2.346,5.512-6.367,5.846c-0.298,0.038-0.521,0.261-0.521,0.559
	v1.788c0,0.297,0.261,0.559,0.558,0.559h1.192c0,0,1.601,0.037,2.494,0.037v0.038c0-0.038,0,24.725,0,24.725
	c0,4.654,2.682,7.41,7.149,7.41c4.395,0,6.145-1.713,6.703-2.422c0.112-0.147,0.149-0.408,0.075-0.596l-0.521-1.081
	c-0.074-0.185-0.224-0.298-0.409-0.334c-0.186-0.036-0.373,0.036-0.484,0.149c-0.707,0.705-2.16,1.859-3.76,1.859
	c-1.155,0-2.644-0.371-2.644-3.535v-26.252l7.112,0.037l1.489,0.038c0.632,0,1.303-0.559,1.303-1.453
	C281.349,382.91,280.678,382.351,280.046,382.351z"/>
<path fill="#FFFFFF" d="M511.806,382.351c0,0-6.591,0.075-8.601,0.075v-0.038v-9.086c0-1.34-0.075-2.495-1.118-2.495
	c-1.266,0-1.489,0.67-2.347,4.916l0,0c-0.854,4.617-2.346,6.106-6.367,6.478c-0.297,0.037-0.521,0.298-0.521,0.559v1.789
	c0,0.148,0.074,0.297,0.149,0.409c0.11,0.112,0.259,0.186,0.41,0.186l3.686-0.074l0,0v24.874c0,4.654,2.682,7.41,7.148,7.41
	c4.396,0,6.145-1.713,6.702-2.422c0.149-0.185,0.149-0.408,0.074-0.595l-0.074-0.11l-0.445-0.933
	c-0.076-0.185-0.224-0.297-0.41-0.336c-0.185-0.036-0.373,0.039-0.482,0.151c-0.709,0.705-2.159,1.861-3.762,1.861
	c-1.117,0-2.644-0.373-2.644-3.539v-26.363l7.11,0.149c-0.036,0,1.452,0.037,1.452,0.037c0.635,0,1.303-0.559,1.303-1.453
	C513.11,382.91,512.438,382.351,511.806,382.351z"/>
<path fill="#FFFFFF" d="M571.906,414.971c0.148-0.187,0.148-0.41,0.036-0.599l-0.148-0.297l-0.372-0.781c-0.075-0.149-0.224-0.261-0.41-0.297
	c-0.185-0.039-0.372,0.036-0.482,0.147c-0.708,0.707-2.123,1.861-3.762,1.861c-1.116,0-2.644-0.372-2.644-3.537v-26.364l7.111,0.149
	l1.489,0.037c0.67,0,1.304-0.559,1.304-1.452c0-0.931-0.671-1.453-1.304-1.453c0,0-6.592,0.074-8.602,0.074v-0.036v-9.086
	c0-1.34-0.075-2.495-1.118-2.495c-1.265,0-1.489,0.67-2.347,4.915l0,0l0,0c-0.855,4.618-2.345,6.107-6.367,6.479
	c-0.297,0.038-0.482,0.298-0.482,0.559v1.788c0,0.149,0.037,0.297,0.147,0.41c0.112,0.111,0.261,0.186,0.41,0.186l3.686-0.074l0,0
	v24.875c0,4.654,2.683,7.41,7.15,7.41C569.598,417.427,571.347,415.715,571.906,414.971z"/>
<path fill="#FFFFFF" d="M385.388,414.002l-4.691,0.073l0,0v-20.069c0-5.884-1.861-12.921-10.834-12.921c-5.586,0-10.837,5.026-12.661,9.868
	l-0.037,0.149v-7.448c0-0.93-0.672-1.563-1.305-1.563c-0.036,0-1.936,0.148-1.936,0.148l-3.018,0.224
	c0.037,0-4.469-0.074-4.469-0.074s-0.111,0-0.147,0c-0.15,0-0.299,0.074-0.411,0.148c-0.111,0.112-0.185,0.261-0.185,0.41v1.825
	c0,0.149,0.072,0.298,0.185,0.409c0.112,0.112,0.261,0.149,0.447,0.149h0.147c0,0,3.167-0.074,4.509-0.111l0,0
	c0,0,0,24.724,0,28.784l-4.546-0.073c0,0-0.11,0-0.146,0c-0.15,0-0.299,0.073-0.411,0.146c-0.111,0.113-0.185,0.262-0.185,0.41
	v1.824c0,0.297,0.26,0.559,0.558,0.559c0,0,0.038,0,0.074,0c0.783-0.109,2.122-0.262,7.485-0.262h0.333
	c4.953,0,6.666,0.113,7.486,0.188c0.147,0.036,0.335-0.037,0.446-0.148c0.11-0.111,0.186-0.262,0.186-0.41v-1.676
	c0-0.147-0.073-0.297-0.186-0.408c-0.111-0.112-0.262-0.188-0.41-0.188l-4.581,0.074l0,0v-13.145c0-8.527,5.884-16.57,12.104-16.57
	c3.835,0,5.251,1.825,5.251,6.665v23.05l-4.73-0.074c-0.148,0-0.298,0.037-0.409,0.148c-0.11,0.111-0.188,0.259-0.188,0.41v1.785
	c0,0.15,0.076,0.297,0.188,0.41c0.111,0.111,0.261,0.148,0.446,0.148c1.08-0.073,2.904-0.223,7.56-0.223h0.373
	c3.724,0,6.182,0.074,7.597,0.148c0.148,0,0.297-0.037,0.445-0.148c0.111-0.111,0.188-0.262,0.188-0.41v-1.676
	c0-0.147-0.075-0.297-0.188-0.408C385.686,414.039,385.537,413.965,385.388,414.002z"/>
<path fill="#FFFFFF" d="M427.278,416.35v-1.826c0-0.15-0.074-0.334-0.187-0.447c-0.11-0.11-0.299-0.146-0.447-0.11
	c-0.706,0.074-1.824,0.261-4.728,0.261h-0.039v-52.466c0-0.931-0.67-1.565-1.303-1.565c-0.037,0-1.823,0.149-1.788,0.149
	l-3.126,0.224c0.036,0-4.172-0.075-4.172-0.075c-0.147,0-0.297,0.038-0.409,0.149c-0.112,0.112-0.149,0.26-0.149,0.41v1.713
	c0,0.148,0.075,0.335,0.188,0.41c0.111,0.111,0.298,0.148,0.446,0.148c0.672-0.074,1.823-0.148,4.134-0.148h0.036v24.204
	l-0.036-0.075c-2.311-3.91-6.146-6.293-10.315-6.293c-8.825,0-14.782,7.448-14.782,18.545c0,10.946,6.069,18.618,14.782,18.618
	c4.134,0,7.971-2.384,10.315-6.368l0.036-0.109v3.871c0,0.931,0.672,1.562,1.305,1.562c0.037,0,1.786-0.111,1.786-0.111l3.129-0.187
	c-0.036,0,4.766,0.112,4.766,0.112c0.15,0,0.298-0.075,0.41-0.187C427.242,416.682,427.278,416.534,427.278,416.35z
	 M405.459,415.268c-5.475,0-7.896-4.841-7.896-15.713c0-10.874,2.421-15.677,7.896-15.677c6.255,0,10.275,6.145,10.275,15.677
	C415.698,409.124,411.676,415.268,405.459,415.268z"/>
<path fill="#FFFFFF" d="M402.591,443.828c0,2.755-1.563,4.395-4.132,4.395c-2.57,0-4.135-1.64-4.135-4.395v-11.543h-2.495v11.543
	c0,4.916,3.427,6.702,6.591,6.702c3.202,0,6.628-1.75,6.628-6.702v-11.543h-2.494v11.543H402.591z"/>
<path fill="#FFFFFF" d="M429.736,446.36c-0.598-1.043-8.154-14.075-8.154-14.075h-2.757v17.947h2.496c0,0,0-12.622,0-13.776
	c0.597,1.005,8.007,13.776,8.007,13.776h2.903v-17.947h-2.495C429.736,432.285,429.736,445.205,429.736,446.36z"/>
<rect fill="#FFFFFF" x="446.045" y="432.285" width="2.496" height="17.947"/>
<path fill="#FFFFFF" d="M468.053,446.956c-0.298-0.855-5.251-14.708-5.251-14.708h-2.645l6.667,17.947h2.382l6.815-17.947h-2.495
	C473.49,432.285,468.946,444.574,468.053,446.956z"/>
<path fill="#FFFFFF" d="M489.688,442.115c0.335,0,6.367,0,6.367,0v-2.235c0,0-6.032,0-6.367,0c0-0.334,0-5.026,0-5.323c0.335,0,6.702,0,6.702,0
	v-2.271h-9.195v17.947h9.493v-2.271c0,0-6.666,0-7,0C489.688,447.627,489.688,442.451,489.688,442.115z"/>
<path fill="#FFFFFF" d="M518.322,443.01c0-0.039-0.076-0.148-0.076-0.148c-0.334-0.708-0.667-1.306-1.339-1.713c1.86-0.634,3.054-2.16,3.054-4.061
	c0-3.164-1.898-4.84-5.436-4.84h-4.807v17.947h2.496c0,0,0-7.744,0-8.08c0.26,0,1.005,0,1.005,0c1.453,0,2.048,0,2.979,2.048
	c0,0,0.187,0.446,2.495,5.811l0.11,0.26h2.757l-0.263-0.56L518.322,443.01z M513.593,439.88c0,0-1.117,0-1.415,0
	c0-0.334,0-5.026,0-5.323c0.262,0,1.342,0,1.342,0c2.384,0,3.946,0.187,3.946,2.569C517.503,439.657,514.525,439.88,513.593,439.88z
	"/>
<rect fill="#FFFFFF" x="555.745" y="432.285" width="2.495" height="17.947"/>
<path fill="#FFFFFF" d="M538.318,439.807c-1.713-0.895-3.165-1.676-3.165-2.979c0-2.383,2.531-2.569,3.312-2.569c1.192,0,2.271,0.225,2.905,0.597
	l0.482,0.262l0.372-2.086l0.076-0.334l-0.298-0.112c-1.491-0.56-3.055-0.596-3.501-0.596c-3.427,0-5.81,2.011-5.81,4.878
	c0,2.644,2.421,3.982,4.544,5.139c1.712,0.931,3.312,1.824,3.312,3.165c0,1.937-1.267,3.09-3.464,3.09
	c-1.415,0-2.568-0.297-3.574-0.93l-0.559-0.337l-0.261,2.645l0.261,0.112c0.819,0.335,2.16,0.781,4.06,0.781
	c3.017,0,6.031-1.602,6.031-5.249C543.011,442.302,540.515,440.961,538.318,439.807z"/>
<path fill="#FFFFFF" d="M569.001,434.557c0,0,4.99,0,5.288,0c0,0.335,0,15.677,0,15.677h2.494c0,0,0-15.342,0-15.677c0.336,0,5.287,0,5.287,0
	v-2.271h-13.069V434.557z"/>
<path fill="#FFFFFF" d="M598.046,440.289c-0.261-0.445-4.953-7.931-4.953-7.931l-0.149-0.11h-2.791l6.739,10.426l-0.036,7.521h2.494v-7.598
	c0.035,0,6.292-9.718,6.292-9.718l0.41-0.596h-2.794C603.223,432.285,598.344,439.88,598.046,440.289z"/>
</svg>
